<svg xmlns="http://www.w3.org/2000/svg" width="72.343" height="45.909" viewBox="0 0 72.343 45.909">
  <title>logo-mark</title>
  <g>
    <path d="M66.365,16.884c.783-.407.941.372,1.3.752.234-.15.045-.364.175-.485.3-.023.105.386.37.419.2.025.388.152.629.109.082-.262-.335-.39-.166-.7a1.169,1.169,0,0,1,.517,0c.09.036.142.2.274.046a.235.235,0,0,0-.019-.352c-.013-.015.012-.062.02-.095a3.233,3.233,0,0,1-.344,6.446c-1.22-.02-2.438-.175-3.656-.274-.666-.054-1.331-.145-2-.171-.411-.015-.8-.243-1.22-.119-.342.1-.611-.24-1-.123a3.364,3.364,0,0,1-1.079-.048c-.259-.014-.469-.09-.507-.437-.2.371-.2.378-.528.35-.685-.06-1.369-.136-2.054-.191-.509-.041-.514-.031-.535.474a15.39,15.39,0,0,1-1.1,5.129c-.092.23-.091.548-.428.618.107.259-.143.387-.206.578a3.485,3.485,0,0,1-1.075,1.775.261.261,0,0,0-.067.086,7.478,7.478,0,0,1-2.3,2.905.95.95,0,0,0-.258.779q0,2.605,0,5.212,0,2.494,0,4.989a3.63,3.63,0,0,1-.027.572.885.885,0,0,1-.915.777.911.911,0,0,1-.913-.788,2.19,2.19,0,0,1-.013-.344q0-3.522.005-7.046V35.551c-.261-.084-.38.073-.517.159a17.169,17.169,0,0,1-2.908,1.478,2.882,2.882,0,0,1-.488.163.923.923,0,0,1-1.077-.64.909.909,0,0,1,.485-1.106,12.236,12.236,0,0,1,1.424-.6,5.138,5.138,0,0,0,.917-.493,15.063,15.063,0,0,0,5.009-4.63c.091-.133.129-.326.343-.344.177-.014.045-.133.066-.2a1.177,1.177,0,0,1,.953-.951c-.256-.142-.368-.311-.2-.582.344-.544.43-1.2.8-1.754.129-.193.062-.573.14-.862a13.545,13.545,0,0,0,.438-2.653c.013-.188,0-.378,0-.548-.169-.128-.282-.009-.39.041a4.493,4.493,0,0,1-1.947.4c-.287,0-.574,0-.861,0a4.112,4.112,0,0,1-3.072-1.172c-.208-.207-.344-.227-.56-.01a4.1,4.1,0,0,1-3.125,1.181,11.956,11.956,0,0,1-1.659-.065,3.793,3.793,0,0,1-2.848-1.982,2.344,2.344,0,0,1-.472-1.852c.033-.108-.1-.267-.152-.4-.227.023-.347.188-.5.294a5.681,5.681,0,0,1-3.188,1.05c-.745.017-1.491.018-2.236.007-.294,0-.417.084-.381.4.077.664.133,1.331.2,2,.025.266.06.533.064.8a1,1,0,0,1-.848,1,.9.9,0,0,1-.985-.832c-.126-.955-.21-1.916-.311-2.874-.04-.38-.086-.76-.112-1.141-.056-.835.277-1.2,1.126-1.215,1.108-.015,2.217.008,3.325-.009A3.793,3.793,0,0,0,39.2,15.426,3.551,3.551,0,0,0,39.591,14a1.8,1.8,0,0,0-1.868-2.051c-.872-.019-1.746,0-2.618-.007a.9.9,0,0,1-.591-.1,1.027,1.027,0,0,0-.044-1.415.84.84,0,0,0-.2.756c.05.613-.071.753-.675.755-1.452,0-2.906.032-4.357-.009-1-.029-2,.055-3,.013a1.863,1.863,0,0,0-.944.2,1.321,1.321,0,0,0-.752,1.062,34.759,34.759,0,0,0-.232,5.434c0,1.07-.016,2.141,0,3.211a14.864,14.864,0,0,0,6.55,12.422,13.792,13.792,0,0,0,2.875,1.53c.124.051.251.093.373.147a.947.947,0,0,1,.59,1.25.93.93,0,0,1-1.239.505A15.864,15.864,0,0,1,30.378,36.2a1.311,1.311,0,0,0-.54-.282c-.15.1-.1.248-.105.373s0,.229,0,.344c.009,1.154-.039,2.309.013,3.462.015.342-.147.654-.052,1.015a4.55,4.55,0,0,1,.038,1.079c0,.363.017.728-.006,1.089-.012.182.126.428-.164.535a.084.084,0,0,0-.019.141c.322.321.183.724.177,1.09a.865.865,0,0,1-.882.867.9.9,0,0,1-.946-.87c-.016-.19-.008-.382-.008-.573,0-3.192-.006-6.384.007-9.576a1.216,1.216,0,0,0-.39-.953,16.671,16.671,0,0,1-5.014-10.775c-.056-.687-.074-1.374-.067-2.062,0-.239-.063-.5.221-.654.1-.055.067-.169.02-.254a3.973,3.973,0,0,1-.242-1.954c-.011-.5-.009-.507-.534-.611-2.454-.486-4.909-.966-7.36-1.461a.654.654,0,0,0-.615.181,6.162,6.162,0,0,1-6.746,1.026,13.339,13.339,0,0,1-3.175-1.929A27.09,27.09,0,0,1,.438,12.11C-.194,11.4-.148,10.9.614,10.342a18.828,18.828,0,0,1,6.64-3.27,7.7,7.7,0,0,1,4.188.017,5.933,5.933,0,0,1,3.267,2.385.807.807,0,0,0,.684.4c2.245.191,4.488.417,6.732.633.513.049,1.026.111,1.54.152.677.054.846-.109.847-.8,0-1.395,0-2.79,0-4.186A5.248,5.248,0,0,1,24.7,4.136a4.048,4.048,0,0,1,3.76-2.858c.191,0,.383.009.573,0a4.688,4.688,0,0,1,3.387.877c.239-.09.288-.295.4-.442A3.967,3.967,0,0,1,36.047.024,9.86,9.86,0,0,1,38.163.09a.726.726,0,0,1,.569.325.447.447,0,0,0,.625.227c.245-.108.407.1.535.234a5.081,5.081,0,0,1,1.139,1.348c.105.241.228.249.439.111A4.035,4.035,0,0,1,43.926,1.7c.344.015.688,0,1.032,0a3.993,3.993,0,0,1,4.035,3.747c.01.111-.014.231.073.324a.224.224,0,0,0,.217-.023,6.357,6.357,0,0,1,4.1-.348A3.717,3.717,0,0,1,56.32,8.016a4.642,4.642,0,0,1,.229,1.568c-.005,1.529,0,3.058,0,4.587,0,.505-.067.582.581.668,2.707.358,5.411.745,8.116,1.123a2.109,2.109,0,0,1,.559.111,1.434,1.434,0,0,0,.65.1,8.17,8.17,0,0,1,1.249.137c.1.013.2.046.156.176-.037.111-.136.114-.236.087a4.353,4.353,0,0,1-.588-.209.383.383,0,0,0-.584.221C66.412,16.665,66.326,16.729,66.365,16.884ZM48.9,17.546c-.014-.237-.1-.372-.366-.272a.354.354,0,0,0,.386.256c.052.438.074.882.162,1.312a2.094,2.094,0,0,0,1.813,1.675,8.708,8.708,0,0,0,1.889,0,1.838,1.838,0,0,0,1.687-1.655,15.341,15.341,0,0,1,.359-2.374.221.221,0,0,0-.031-.214,1.088,1.088,0,0,1-.117-.72c0-1.911,0-3.823,0-5.734a6.844,6.844,0,0,0-.028-.744,2.108,2.108,0,0,0-2.033-1.9c-.515-.018-1.032-.018-1.548,0A2.13,2.13,0,0,0,49.083,8.8a3.707,3.707,0,0,0-.086.91q0,3.555,0,7.11A1.157,1.157,0,0,1,48.9,17.546Zm-3.275,2.983a1.134,1.134,0,0,1,.13-.089,2.585,2.585,0,0,0,1.409-2.594c-.032-3.878-.012-7.757-.012-11.635,0-.191.007-.383-.01-.572A2.163,2.163,0,0,0,45.229,3.6a6.662,6.662,0,0,0-1.828,0,2.113,2.113,0,0,0-1.846,1.577,3.228,3.228,0,0,0-.084.967c0,1.643-.007,3.286,0,4.929,0,.387,0,.749-.419.933a.181.181,0,1,0,.1.347c.209-.055.229.046.2.211a.377.377,0,0,0-.006.17c.12.4.265.793-.06,1.165-.039.044-.037.042.014.073.3.184.154.484.158.727.024,1.28-.013,2.561.041,3.839a2.1,2.1,0,0,0,2.048,2.007,4.93,4.93,0,0,0,.859,0,2.142,2.142,0,0,1,1.012.3c.164.059.082.348.316.309C45.839,20.9,45.605,20.747,45.622,20.529ZM2.443,11.394a.5.5,0,0,0,.181.307,22.1,22.1,0,0,0,3.968,3.268,7.485,7.485,0,0,0,1.967.91,4.152,4.152,0,0,0,4.018-.864,3.184,3.184,0,0,0,1.115-3.239,3.74,3.74,0,0,0-1.92-2.514,4.988,4.988,0,0,0-3.328-.517,13.516,13.516,0,0,0-4.727,1.813A7.054,7.054,0,0,0,2.443,11.394Zm37.071-.921a1.241,1.241,0,0,0,.085-.591c0-1.889-.022-3.778.008-5.667a2.21,2.21,0,0,0-2.29-2.31c-.418.032-.84,0-1.259.007A2.132,2.132,0,0,0,33.945,4.03c-.007.286,0,.572,0,.858,0,.151.031.319-.091.435-.253.238-.173.469-.006.7a.507.507,0,0,1,.1.322A29.657,29.657,0,0,1,33.851,10a.293.293,0,0,0,.2.371c-.031-.337.2-.286.4-.288.457,0,.916-.019,1.373,0C37.051,10.14,38.308,9.875,39.514,10.473ZM69.12,21.178a1.382,1.382,0,0,0,.2-2.743c-.243-.049-.491-.077-.737-.111l-7.033-.98c-1.45-.2-2.9-.408-4.35-.605-.558-.076-.62-.023-.643.557-.021.515,0,1.033-.036,1.547a4.106,4.106,0,0,0,0,.844c.042.316.164.417.459.438.876.064,1.751.149,2.626.225q1.2.1,2.4.207c.8.071,1.6.158,2.4.211.777.052,1.539.216,2.323.227C67.484,21.005,68.245,21.107,69.12,21.178ZM29.2,10.077c.8,0,1.6.007,2.4,0,.409,0,.439-.029.44-.413.007-1.488.024-2.976-.006-4.462A2.1,2.1,0,0,0,30.02,3.171c-.514-.024-1.031-.021-1.545,0a2.113,2.113,0,0,0-2.07,2.046C26.368,6.7,26.4,8.19,26.39,9.678c0,.3.118.406.408.4C27.6,10.07,28.4,10.077,29.2,10.077ZM22.1,15.75c.19.067.283-.087.292-.346.006-.19.017-.381.02-.571a9.467,9.467,0,0,1,.107-1.939c.1-.455.09-.465-.383-.512-1.9-.185-3.8-.36-5.695-.554-.307-.031-.4.089-.436.366q-.111,1-.254,1.986c-.043.293.119.354.352.4.937.178,1.871.37,2.806.553C19.941,15.333,20.971,15.531,22.1,15.75ZM11.361,7.79c.016.208.326.059.341.3.022.368.3.337.572.363C12.092,7.757,11.838,7.583,11.361,7.79ZM50.729,37.528c-.392-.134-.48-.1-.6.2-.03.076-.047.152.015.207a.154.154,0,0,0,.208-.006C50.474,37.814,50.58,37.689,50.729,37.528ZM23.581,16.714a.338.338,0,0,0-.321-.255.171.171,0,0,0-.16.2.277.277,0,0,0,.28.238C23.486,16.9,23.555,16.836,23.581,16.714Zm13.945-6.341c-.128.177-.2.35.006.487.064.042.152-.015.2-.072C37.933,10.542,37.555,10.538,37.526,10.373Zm11.718,9.655c-.117.16-.293.151-.44.209C49.194,20.515,49.194,20.515,49.244,20.028Zm-12.8-9.386c.053-.207.129-.382-.1-.459-.056-.019-.185.021-.2.06C36.076,10.458,36.249,10.526,36.445,10.642ZM53.963,28.2c-.062.29-.027.459.215.587C54.263,28.544,54.2,28.388,53.963,28.2ZM33.873,9.518a.166.166,0,0,0-.223-.149.14.14,0,0,0-.119.157c.021.134.136.167.244.167C33.857,9.694,33.883,9.615,33.873,9.518Zm-8.7.156c-.014.178-.022.307.115.39a.1.1,0,0,0,.142-.049C25.453,9.869,25.385,9.762,25.17,9.674ZM50.6,35.387c.029-.216-.06-.292-.21-.307-.056-.006-.122.024-.115.088C50.3,35.335,50.445,35.344,50.6,35.387ZM37.094,18.866c.139.077.276.123.4,0a.158.158,0,0,0-.04-.142A.251.251,0,0,0,37.094,18.866ZM46.022,35.3c.15.071.27.142.4,0a.1.1,0,0,0-.007-.095C46.274,35.1,46.156,35.149,46.022,35.3Z" fill="#f6a92f"/>
    <path d="M59.17,40.646a.9.9,0,0,1-.579-.857c-.009-.153-.014-.306-.014-.458q0-6.507,0-13.015a1.5,1.5,0,0,1,.225-.974.839.839,0,0,1,.883-.373.812.812,0,0,1,.734.7,8.73,8.73,0,0,1,.028,1.2c0,.052-.031.148-.055.151-.566.063-.233.445-.122.543a.617.617,0,0,1,.183.558q0,5.733,0,11.466a1.036,1.036,0,0,1-.443.991c-.078.049-.212.13-.251.034C59.531,40.038,59.353,40.434,59.17,40.646Zm.46-2.782c-.114,0-.168.084-.232.147s-.127.146-.021.226c.073.055.139.006.193-.045A.225.225,0,0,0,59.63,37.864Zm-.424-10.02c-.055.021-.156.011-.141.116.019.124.126.117.218.109s.142-.071.118-.149S59.294,27.828,59.206,27.844Z" fill="#f6a92f"/>
    <path d="M18.6,31.208c.147.009.232.178.342.061a.193.193,0,0,0-.05-.3c-.356-.224-.318-.568-.317-.91,0-1.26,0-2.52,0-3.78,0-.1,0-.192,0-.287a.932.932,0,1,1,1.85-.008c.009,1.088-.015,2.177.013,3.265.01.374-.076.617-.442.7.022.209.112.428.045.574-.164.351.013.609.106.918a3.945,3.945,0,0,1,.282,1.146c0,2.349-.017,4.7.01,7.046a.964.964,0,0,1-1.034,1.076.87.87,0,0,1-.81-.753,2.185,2.185,0,0,1-.019-.343q0-4.038,0-8.077C18.577,31.443,18.59,31.349,18.6,31.208Z" fill="#f6a92f"/>
    <path d="M23.4,39.56c0-1.031-.013-2.062,0-3.093a.9.9,0,0,1,.978-.954.857.857,0,0,1,.848.784,14.055,14.055,0,0,1-.04,2.627,4.168,4.168,0,0,0,.066.66c-.016,1.012.005,2.024-.013,3.036a1.306,1.306,0,0,1-.291.894.819.819,0,0,1-.9.217.858.858,0,0,1-.628-.678,2.84,2.84,0,0,1-.03-.514c0-.993,0-1.986,0-2.979Z" fill="#f6a92f"/>
    <path d="M55.639,39.662q0,1.43,0,2.861a2.9,2.9,0,0,1-.017.457.926.926,0,0,1-.909.8.9.9,0,0,1-.9-.727,3.183,3.183,0,0,1-.049-.625q-.008-1.088,0-2.175c0-.259-.066-.543.2-.733a1.006,1.006,0,0,1-.2-.736c.029-.3-.067-.612.1-.894.062-.1-.023-.175-.044-.262a3.378,3.378,0,0,1-.016-1.362.875.875,0,0,1,1.262-.664,1.07,1.07,0,0,1,.577.974C55.629,37.6,55.638,38.632,55.639,39.662Z" fill="#f6a92f"/>
    <path d="M64.918,32.58c0,.513,0,1.025,0,1.538,0,.19,0,.4-.285.395-.163,0-.186.1-.176.222.022.272-.168.308-.365.332a.878.878,0,0,1-1.017-.841c-.036-.818-.02-1.639.008-2.457a3.476,3.476,0,0,0-.009-.5.93.93,0,1,1,1.844-.119C64.93,31.626,64.918,32.1,64.918,32.58Z" fill="#f6a92f"/>
    <path d="M14.12,32.624c0-.5-.012-.992,0-1.488a.907.907,0,0,1,1.022-.959.962.962,0,0,1,.819,1.166c-.048.31-.27.336-.495.236-.185-.082-.238,0-.294.137s-.087.263.052.359a1.027,1.027,0,0,0,.258.119c.478.164.48.163.482.621,0,.439.012.878,0,1.316a.92.92,0,1,1-1.839-.02C14.109,33.616,14.12,33.12,14.12,32.624Z" fill="#f6a92f"/>
  </g>
</svg>
